<svg xmlns="http://www.w3.org/2000/svg" width="230" height="230" fill="none"><path fill="#fff" d="M170.96 139.592c-.442.346-.904.64-1.383.879-1.868.913-3.985.835-5.709-.576-1.725-1.407-3.093-4.273-3.062-7.239-1.844 1.966-4.621 1.589-6.217-.818-.955-1.455-1.423-3.567-1.345-5.615.043-1.342.324-2.671.846-3.767 1.303-2.784 3.951-3.736 5.979-2.242.132-5.52 2.898-10.681 6.458-11.988 1.291-.489 2.657-.442 3.948.039-.525-28.877-1.262-56.844-2.212-71.495-14.457-1.65-30.535-2.208-45.878-2.208-26.168.005-50.196 1.624-60.435 2.226-1.432 22.092-2.379 74.416-2.84 114.493a4946.307 4946.307 0 0 0-.307 36.903c-.006 1.433-.01 2.779-.012 4.031 12.83 2.117 34.609 3.446 55.963 3.684 2.272.026 4.541.039 6.796.039 5.758 0 11.416-.087 16.778-.26 13.008-.42 24.286-1.364 31.108-2.914a36.678 36.678 0 0 0 1.989-.506c-.023-11.464-.181-30.972-.465-52.666Z"/><path fill="#fff" d="M170.96 139.592c-.442.346-.904.64-1.383.879-1.868.913-3.985.835-5.709-.576-1.725-1.407-3.093-4.273-3.062-7.239-1.844 1.966-4.621 1.589-6.217-.818-.955-1.455-1.423-3.567-1.345-5.615.043-1.342.324-2.671.846-3.767 1.303-2.784 3.951-3.736 5.979-2.242.132-5.52 2.898-10.681 6.458-11.988 1.291-.489 2.657-.442 3.948.039l.485 31.327Z"/><path fill="#97DCE5" d="M172.805 105.565c-.333-16-.721-32.506-1.165-48.862-3.568-.88-7.342-.967-10.909-.071-9.839 2.394-17.482 11.844-17.847 21.953-5.605-2.735-12.923-.991-16.522 4.107-1.443 2.006-2.22 4.44-2.339 6.897-.214 3.75 1.078 7.62 3.718 10.283 4.408 4.408 12.083 5.098 17.181 1.499-.087 5.431 3.694 10.679 8.459 13.256 4.765 2.584 10.616 2.727 15.777 1.054a25.81 25.81 0 0 0 3.822-1.609c-.056-2.815-.111-5.653-.175-8.507Z"/><path fill="#85D7E3" d="M153.833 99.722c-.991-3.06-.904-7.104-3.782-8.452-1.831-.84-3.924-.119-5.787.54-3.901 1.379-8.04 2.52-12.146 2.037-3.084-.389-6.176-1.887-8.095-4.258-.214 3.75 1.078 7.62 3.718 10.283 4.408 4.408 12.083 5.098 17.181 1.499-.087 5.431 3.694 10.679 8.459 13.256 4.765 2.584 10.616 2.727 15.777 1.054a25.81 25.81 0 0 0 3.822-1.609c-.056-2.815-.111-5.653-.175-8.507-2.338 1.141-4.883 1.831-7.484 1.807-4.923-.031-9.958-2.973-11.488-7.65Z"/><path fill="#F9AB42" d="M156.152 110.566c-3.258-.433-6.406-.406-9.68-.208-1.561.098-1.588 2.403 0 2.447 3.367.093 6.586.005 9.904-.553 1.051-.175.635-1.571-.224-1.686ZM82.532 112.805c1.583-.044 1.566-2.349 0-2.447-3.28-.198-6.427-.225-9.68.208-.854.115-1.286 1.511-.23 1.686 3.324.558 6.538.646 9.91.553ZM113.2 143.471c-.093 3.372-.005 6.586.553 9.91.175 1.045 1.571.629 1.686-.23.438-3.253.4-6.406.208-9.68-.098-1.561-2.403-1.583-2.447 0ZM115.647 79.532c.198-3.28.23-6.422-.208-9.68-.115-.854-1.511-1.286-1.686-.23-.558 3.324-.646 6.538-.553 9.91.044 1.583 2.349 1.566 2.447 0ZM102.786 141.56c-.843 1.484-1.883 3.099-2.146 4.812-.159 1.019 1.002 1.501 1.626.685 1.051-1.374 1.495-3.247 1.976-4.884.258-.865-1.007-1.396-1.456-.613ZM91.54 135.012c-1.03.92-1.982 1.922-2.184 3.334-.12.832.7 1.32 1.368.794a6.039 6.039 0 0 0 1.26-1.325c.328-.46.64-.931.99-1.369.805-1.007-.437-2.327-1.434-1.434ZM84.969 127.85c-1.43.444-3.198 1.085-3.729 2.639-.197.586.318 1.085.86 1.128 1.516.11 2.814-1.281 3.701-2.327.526-.613.044-1.708-.832-1.44ZM81.24 119.43c-.624-.082-1.21-.219-1.85-.219-.696-.006-1.243.153-1.856.454-.81.4-.499 1.539.235 1.796 1.287.449 2.447.033 3.712-.285 1.046-.268.69-1.631-.24-1.746ZM126.574 141.56c-.444-.778-1.719-.257-1.462.613.482 1.637.931 3.51 1.977 4.884.618.81 1.79.339 1.631-.684-.268-1.714-1.303-3.329-2.146-4.813ZM137.815 135.012c-.991-.893-2.239.427-1.434 1.434.356.438.668.909.991 1.369.367.52.761.936 1.265 1.325.668.526 1.483.038 1.363-.794-.197-1.412-1.155-2.414-2.185-3.334ZM144.389 127.85c-.881-.268-1.358.827-.837 1.44.892 1.046 2.184 2.437 3.701 2.327.542-.043 1.062-.542.859-1.128-.531-1.56-2.294-2.195-3.723-2.639ZM151.821 119.665c-.613-.301-1.161-.46-1.856-.454-.635 0-1.227.137-1.851.219-.919.115-1.292 1.478-.235 1.746 1.259.318 2.42.734 3.707.285.733-.257 1.051-1.396.235-1.796ZM102.786 80.994c.443.778 1.714.257 1.456-.619-.482-1.631-.925-3.504-1.976-4.878-.619-.81-1.785-.34-1.626.684.263 1.714 1.303 3.33 2.146 4.813ZM91.54 87.543c.991.892 2.24-.427 1.435-1.435-.35-.438-.663-.909-.991-1.368a6.032 6.032 0 0 0-1.26-1.325c-.668-.526-1.489-.039-1.368.793.202 1.413 1.155 2.415 2.184 3.335ZM84.969 94.699c.876.273 1.358-.822.832-1.435-.887-1.045-2.185-2.436-3.701-2.321-.542.038-1.057.536-.86 1.122.531 1.555 2.3 2.196 3.729 2.634ZM77.534 102.889c.613.302 1.16.46 1.856.455.64 0 1.226-.137 1.85-.219.926-.115 1.298-1.478.241-1.747-1.264-.317-2.425-.733-3.712-.284-.734.251-1.046 1.396-.235 1.795ZM126.575 80.994c.843-1.483 1.878-3.099 2.146-4.812.153-1.019-1.007-1.5-1.632-.685-1.045 1.375-1.494 3.247-1.976 4.879-.252.87 1.013 1.401 1.462.618ZM137.815 87.543c1.03-.92 1.988-1.922 2.185-3.335.12-.832-.695-1.32-1.363-.793a5.93 5.93 0 0 0-1.265 1.325c-.323.46-.635.93-.991 1.368-.805 1.008.443 2.327 1.434 1.435ZM144.389 94.699c1.429-.438 3.192-1.079 3.723-2.634.203-.586-.317-1.084-.859-1.122-1.511-.115-2.815 1.276-3.701 2.321-.521.613-.044 1.708.837 1.435ZM148.115 103.125c.625.082 1.216.219 1.851.219.695.005 1.243-.153 1.856-.455.816-.399.504-1.538-.235-1.795-1.287-.449-2.448-.033-3.707.284-1.051.269-.695 1.632.235 1.747ZM141.72 100.721c-4.49-10.014-14.98-17.044-27.2-17.044-16.382 0-29.631 12.555-29.631 28.049 0 2.103.257 4.2.7 6.149 2.984 12.549 14.794 21.9 28.931 21.9 16.343 0 29.593-12.549 29.593-28.049 0-3.898-.843-7.616-2.393-11.005Z"/><path fill="#F89C2A" d="M106.933 123.322c-7.435.219-14.903-1.73-21.347-5.447 2.984 12.549 14.794 21.9 28.93 21.9 16.343 0 29.593-12.549 29.593-28.049a26.37 26.37 0 0 0-2.392-11.005 35.341 35.341 0 0 1-4.6 7.435c-7.216 9.127-18.549 14.832-30.184 15.166Z"/><path fill="#97DCE5" d="M119.335 128.708c-6.539-3.278-14.761-2.691-20.905 1.287-3.773-6.649-12.206-10.272-19.652-8.453-7.431 1.839-13.214 8.969-13.48 16.626-4.244-2.049-9.78-.742-12.506 3.107l-.19.285c-2.541 3.849-2.01 9.441 1.247 12.718 3.317 3.337 9.12 3.848 12.988 1.137-.08 4.114 2.786 8.073 6.384 10.027 3.623 1.949 8.057 2.064 11.94.797 3.91-1.273 7.301-3.829 10.027-6.88.967 3.332 4.61 5.893 8.078 5.933 3.467.035 6.804-2.411 7.827-5.708 6.689 1.308 14.917-4.55 17.192-11.144l.02-.02c.17-.511.321-1.002.416-1.513 1.438-7.186-2.826-14.902-9.386-18.199Z"/><path fill="#85D7E3" d="M73.22 165.442c3.624 1.949 8.058 2.064 11.942.797 3.908-1.273 7.3-3.829 10.026-6.88.967 3.332 4.61 5.893 8.078 5.933 3.467.035 6.804-2.411 7.827-5.708 6.689 1.308 14.917-4.55 17.192-11.144-4.134 2.841-9.421 4.189-14.086 2.481-4.018-1.479-7.351-5.061-11.635-5.117-3.091-.04-5.877 1.839-8.152 3.944-2.295 2.084-4.34 4.49-7.05 5.968-2.712 1.498-6.404 1.804-8.7-.266-2.635-2.385-2.58-7.05-5.612-8.924-1.743-1.102-3.998-.872-5.968-.321-1.989.567-3.903 1.438-5.952 1.554-2.466.15-4.966-.852-6.635-2.676a8.407 8.407 0 0 1-1.894-3.523c-2.54 3.849-2.01 9.441 1.248 12.718 3.317 3.337 9.12 3.848 12.988 1.137-.08 4.114 2.786 8.073 6.384 10.027Z"/><path fill="#CAB1FE" d="m58.339 193.375-.364-.061.002-.55c.015-8.381.104-21.27.264-36.249.436-40.955 1.415-97.553 2.935-120.381l.035-.528.355-.022c10.028-.584 34.325-2.247 60.82-2.247 15.478 0 31.705.567 46.28 2.247l.341.039.035.51c2.074 31.18 3.141 125.339 3.199 156.631v.507l-.327.095c-8.874 2.645-28.877 3.797-50.363 3.797-11.72 0-23.873-.342-34.878-.983-11.183-.649-21.182-1.602-28.334-2.805Zm129.787 3.177c-.356-50.934-1.698-147.642-4.016-183.182-18.766-2.143-39.644-2.87-59.566-2.87-27.941 0-54.003 1.429-69.737 2.364-3.417.208-6.343.385-8.699.524C43.46 53.992 42.086 174.29 42 215.16c18.39 3.048 51.056 4.84 81.456 4.84 27.546.004 53.263-1.476 64.762-4.797-.011-5.083-.043-11.403-.092-18.651Z"/><path fill="#9E6FFF" d="M111.082 209.774a84.24 84.24 0 0 1-24.409-13.594c-11.183-.649-21.182-1.602-28.334-2.805l-.364-.061.002-.55c.015-8.381.104-21.27.264-36.249-8.578-21.82-11.717-48.263-11.197-73.82.485-23.646 3.824-46.86 7.763-69.831-3.417.208-6.343.385-8.699.524C43.46 53.992 42.086 174.29 42 215.16c18.39 3.048 51.056 4.84 81.456 4.84 27.546.004 53.263-1.476 64.762-4.797-.011-5.083-.043-11.403-.092-18.651-23.342 17.906-51.383 22.34-77.044 13.222Z"/></svg>