<svg xmlns="http://www.w3.org/2000/svg" width="230" height="230" fill="none"><path fill="#66F" d="M193.237 17.142c.088-.01.17-.06.225-.146a.374.374 0 0 0-.077-.486c-7.187-5.564-18.692-9.676-32.367-12.416C147.343 1.357 131.501 0 115.664 0 90.55.002 65.46 3.407 49.044 10.155c-4.528 1.86-8.403 3.975-11.437 6.356a.374.374 0 0 0-.075.487.309.309 0 0 0 .224.144c-5.889 65.731-4.804 132.235 3.24 197.696a.321.321 0 0 0-.237.186c-.08.171-.02.382.135.47 7.211 4.131 18.23 7.75 31.413 10.345C85.49 228.434 100.83 230 116.66 230c25.533-.001 52.34-4.07 73.422-14.497a.347.347 0 0 0 .184-.272c.229-1.83.443-3.653.657-5.482.023-.192-.099-.367-.271-.392h-.004a933.524 933.524 0 0 0 2.176-20.535 937.39 937.39 0 0 0 .413-171.68Z"/><path fill="#5B5EB4" d="M193.385 16.51c-7.187-5.564-18.692-9.676-32.367-12.416C147.343 1.357 131.501 0 115.664 0 90.55.002 65.46 3.407 49.044 10.155c-4.528 1.86-8.403 3.975-11.437 6.356a.374.374 0 0 0-.075.487.309.309 0 0 0 .224.144c-5.889 65.731-4.804 132.235 3.24 197.696a.321.321 0 0 0-.237.186c-.08.171-.02.382.135.47 7.211 4.131 18.23 7.75 31.413 10.345C85.49 228.434 100.83 230 116.66 230c25.533-.001 52.34-4.07 73.422-14.497a.347.347 0 0 0 .184-.272c.229-1.83.443-3.653.657-5.482.023-.192-.099-.367-.271-.392h-.004a933.524 933.524 0 0 0 2.176-20.535c-13.957 11.201-30.912 15.467-49.078 14.098-6.499-.487-13.02-1.434-19.437-2.897a178.81 178.81 0 0 1-8.036.179c-12.372 0-24.36-1.254-34.661-3.331-10.303-2.077-18.915-4.974-24.558-8.285l-.143-.084-.022-.178a764.205 764.205 0 0 1-4.259-48.23c-6.41-15.031-10.122-31.672-11.383-48.267-2.06-27.147 1.865-54.378 7.748-80.907l.267-.11C65.553 4.108 90.605.697 115.664.698c15.804 0 31.615 1.355 45.243 4.083 13.626 2.728 25.071 6.84 32.117 12.301.065.05.141.07.213.06.088-.01.17-.06.225-.146a.374.374 0 0 0-.077-.486Z"/><path fill="#fff" d="m176.384 29.522-.014-.157-.116-.092c-5.63-4.462-14.626-7.75-25.317-9.945-10.688-2.19-23.069-3.277-35.444-3.277-12.52 0-25.032 1.11-35.783 3.315-10.751 2.206-19.738 5.495-25.232 9.907l-.115.093-.014.156a767.21 767.21 0 0 0-2.943 67.185c0 14.472.409 28.944 1.225 43.387a764.28 764.28 0 0 0 4.258 48.23l.022.178.143.084c5.643 3.311 14.256 6.208 24.558 8.285s22.289 3.331 34.661 3.331c2.665 0 5.349-.058 8.036-.179 17.436-.782 35.071-4.193 49.353-11.427l.158-.082.024-.19a767.266 767.266 0 0 0 5.482-91.62c0-22.43-.98-44.862-2.942-67.182Z"/><path fill="#A39FD6" d="M115.501 205a8.5 8.5 0 1 0-.002 17 8.5 8.5 0 0 0 .002-17Z"/><path fill="#9D9BD5" d="M37.971 17.08c2.911-2.286 6.648-4.342 11.024-6.16l.268-.11C65.553 4.108 90.605.697 115.665.7c15.803 0 31.615 1.354 45.243 4.082 13.626 2.728 25.071 6.84 32.117 12.301.065.05.141.07.212.06a.308.308 0 0 0 .226-.146.374.374 0 0 0-.077-.486c-7.187-5.564-18.692-9.676-32.368-12.416C147.344 1.357 131.502 0 115.665 0c-25.114.002-50.204 3.407-66.62 10.155-4.528 1.86-8.404 3.975-11.437 6.356a.374.374 0 0 0-.075.487.31.31 0 0 0 .223.144c.074.01.15-.01.215-.062ZM190.298 209.658c-.207 1.765-.413 3.523-.631 5.286-20.934 10.31-47.6 14.359-73.007 14.357-15.794 0-31.102-1.563-44.244-4.149-13.14-2.585-24.12-6.201-31.234-10.278a.288.288 0 0 0-.186-.036.319.319 0 0 0-.238.186c-.08.171-.02.382.135.47 7.211 4.131 18.23 7.75 31.413 10.345C85.488 228.434 100.828 230 116.66 230c25.532-.002 52.338-4.07 73.422-14.497a.344.344 0 0 0 .183-.272c.228-1.83.442-3.653.657-5.482.023-.192-.099-.367-.271-.392h-.004c-.171-.022-.326.112-.349.301Z"/><path fill="#202A57" d="M115.499 223.886c4.508 0 8.163-4.057 8.163-9.061a10 10 0 0 0-.061-1.115c-.495 4.477-3.934 7.946-8.102 7.946-4.17 0-7.608-3.469-8.104-7.946-.04.365-.061.738-.061 1.115 0 5.004 3.655 9.061 8.165 9.061Z"/><path fill="#1B2346" d="M173.242 188.04c-16.333 8.23-37.141 11.465-56.969 11.464-.664 0-1.329-.004-1.991-.011-9.429-.102-18.593-.927-26.899-2.28a154.931 154.931 0 0 1-5.658-1.027c-10.173-2.051-18.684-4.91-24.233-8.134a765.487 765.487 0 0 1-4.965-63.886 768.1 768.1 0 0 1-.492-27.313v-.146c0-12.371.3-24.745.897-37.098a764.25 764.25 0 0 1 2.03-29.862c3.393-2.697 8.193-4.99 13.953-6.864 3.342-1.088 7.008-2.032 10.91-2.83 9.855-2.022 21.217-3.12 32.703-3.282a193.9 193.9 0 0 1 2.965-.021c12.342 0 24.689 1.082 35.331 3.264 2.528.518 4.958 1.098 7.269 1.74 7.352 2.043 13.495 4.713 17.679 7.996a767.027 767.027 0 0 1 2.926 66.954 770.315 770.315 0 0 1-2.251 58.773 764.157 764.157 0 0 1-3.205 32.563Zm.578.474.024-.19a767.266 767.266 0 0 0 5.482-91.62c0-22.43-.98-44.862-2.942-67.182l-.014-.157-.116-.092c-5.63-4.462-14.626-7.75-25.317-9.945-10.688-2.19-23.069-3.277-35.444-3.277-12.52 0-25.032 1.11-35.783 3.315-10.751 2.206-19.738 5.495-25.232 9.907l-.115.093-.014.156a767.21 767.21 0 0 0-2.943 67.185c0 14.472.409 28.944 1.225 43.387a764.28 764.28 0 0 0 4.258 48.23l.022.178.143.084c5.643 3.311 14.256 6.208 24.558 8.285s22.289 3.331 34.661 3.331c2.665 0 5.349-.058 8.036-.179 17.436-.782 35.071-4.193 49.353-11.427l.158-.082Z"/><path fill="#181DB1" d="M137.323 145.71c-4.523 4.327-9.461 3.644-14.215 1.594-5.03-2.095-9.645-2.186-14.953 0-6.646 2.824-10.154 2.005-14.123-1.594-22.522-22.911-19.2-57.803 6.369-59.078 6.231.319 10.569 3.37 14.215 3.644 5.446-1.093 10.662-4.236 16.477-3.826 6.969.546 12.23 3.28 15.692 8.199-14.4 8.518-10.985 27.239 2.215 32.477-2.631 6.832-6.046 13.619-11.723 18.63l.046-.046Zm-23.168-59.351c-.692-10.158 7.661-18.54 17.261-19.359 1.338 11.752-10.8 20.497-17.261 19.359Z"/></svg>