<svg xmlns="http://www.w3.org/2000/svg" width="230" height="230" fill="none"><path fill="#33296B" d="M128.216 184.778c-3.248 2.687-7.745 4.355-12.717 4.355s-9.47-1.668-12.717-4.355c-2.955-2.447-4.873-5.727-5.196-9.369 11.959.249 24.066.35 35.796.291-.397 3.526-2.291 6.698-5.166 9.078ZM219 158.751c-.286-38.761-2.201-90.845-5.74-129.436-.348-3.79-3.399-6.751-7.195-7.014-27.003-1.862-54.364-2.505-79.838-2.505-42.392 0-79.557 1.782-101.132 2.7a7.732 7.732 0 0 0-7.376 7.02C14.205 67.947 12.298 119.683 12 158.331v.061c0 .802.123 1.58.352 2.311.256 2.98 1.436 9.392 6.827 10.349 1.838.324 4.143.536 6.547.673 16.661 1.591 38.145 2.761 60.77 3.409-1.492 7.917-3.96 16.07-6.755 23.441a7263.72 7263.72 0 0 1-19.9-.039h-.235l-.01-.012-1.749 1.562c.025 2.319 1.059 7.029 3.864 9.913 17.713-.042 89.862-.042 107.576 0 2.806-2.884 3.839-7.594 3.863-9.913l-1.747-1.545-.011.01v-.015h-.233c-4.207.018-11.273.03-19.903.039-2.741-7.229-5.168-15.211-6.668-22.983 28.511-.411 53.633-1.851 67.23-4.54 5.601-1.829 6.708-7.731 6.924-10.261a7.727 7.727 0 0 0 .258-1.982v-.059Z"/><path fill="#fff" d="M201.922 137.13c-.336-30.828-1.941-71.088-4.805-99.703-22.199-1.69-46.91-2.26-70.488-2.26-36.553 0-70.376 1.371-87.884 2.074l-4.86.193c-3.147 31.43-4.773 76.906-4.867 108.5 21.669 2.399 60.341 3.809 96.328 3.809 32.663.002 63.135-1.164 76.639-3.793-.009-2.835-.03-5.782-.063-8.82Z"/><path fill="#E0FFF9" d="M201.985 130c-14.255 1.937-22.173 1.474-36.485 0-8.085-.832-22.7 5.7-30.579 3.642h-2.43v-.655c-8.594-2.392-16.977-5.521-24.986-9.388H39.886v-5.3h57.67a135.515 135.515 0 0 1-7.933-5.022H39.886v-5.3h42.517a128.38 128.38 0 0 1-4.34-3.579 122.09 122.09 0 0 1-8.14-7.702h-2.895l-.62-3.801A122.579 122.579 0 0 1 55.501 78.61l-2.258 13.55-.623 3.736-12.007.4 8.137-29.429c-4.696-9.37-8.12-19.343-10.006-29.626l-4.86.193c-3.147 31.43-4.773 76.906-4.867 108.5 21.669 2.399 60.342 3.809 96.328 3.809 32.663.002 63.135-1.164 76.639-3.793-.009-2.835.033-12.912 0-15.95Z"/><path fill="#E0FFF9" d="M134.921 133.642h-2.43v-.655l2.43.655ZM107.505 123.599H39.886v-5.3h57.67l9.949 5.3ZM89.623 113.277H39.886v-5.3h42.517l7.22 5.3ZM69.923 96.696h-2.895l-.62-3.801 3.515 3.801ZM55.502 78.61l-2.258 13.55-.623 3.736-12.007.4 8.137-29.429 6.751 11.743Z"/><path fill="#9BFFF9" d="M150.762 198.577a154.712 154.712 0 0 1-1.242-3.4 149.924 149.924 0 0 1-3.558-11.529 120.889 120.889 0 0 1-1.844-8.049c-3.381.047-6.808.08-10.269.099-.215 1.993-.892 3.875-1.939 5.571a15.84 15.84 0 0 1-3.399 3.866c-3.336 2.76-7.936 4.462-13.012 4.462-5.076 0-9.676-1.702-13.013-4.462-1.696-1.403-3.066-3.083-4.004-4.95a13.118 13.118 0 0 1-1.363-4.787c-3.401-.071-6.79-.155-10.153-.25a117.536 117.536 0 0 1-1.375 6.324c-1.215 4.947-2.739 9.882-4.418 14.562-.308.857-.62 1.705-.937 2.543a34338.935 34338.935 0 0 0 70.526 0ZM60.078 199.003c.04 1.127.297 2.756.841 4.439.262.81.59 1.633.993 2.421.479.938 1.062 1.828 1.76 2.587 8.62-.021 30.224-.031 51.828-.031 21.604 0 43.208.01 51.83.031 1.284-1.397 2.178-3.234 2.752-5.008.092-.284.175-.566.251-.846.373-1.373.556-2.656.59-3.593-9.431.035-32.426.053-55.423.053-22.996 0-45.99-.018-55.422-.053ZM182.059 148.661c-15.32 1.06-35.55 1.545-56.714 1.546-32.153 0-66.44-1.124-88.864-3.077-3.278-.275-6.32-.569-9.087-.879.09-32.272 1.75-78.865 4.97-110.975 24.695-.955 105.018-4.699 166.386 0 3.221 32.11 4.882 78.703 4.97 110.975-5.075 1.007-12.554 1.805-21.661 2.41ZM43.904 159.566l-.117.013a34.5 34.5 0 0 1-3.895.203c-4.253 0-8.964-.624-12.25-1.625l-.088-.027-.049-.077c-.427-.679-.578-1.632-.58-2.629.001-1.372.297-2.817.714-3.713l.067-.144.157.002a88.725 88.725 0 0 1 16.422 1.592l.128.024.052.12c.25.584.398 1.483.4 2.479-.002 1.25-.239 2.643-.898 3.682l-.063.1Zm174.635-.813c-.006-.749-.011-1.504-.019-2.263-.343-38.494-2.253-89.31-5.719-127.133a7.249 7.249 0 0 0-2.317-4.682 7.302 7.302 0 0 0-4.448-1.912c-26.99-1.86-54.341-2.504-79.806-2.504-42.381 0-79.537 1.782-101.114 2.7a7.267 7.267 0 0 0-6.934 6.598c-.22 2.413-.435 4.879-.643 7.391-2.885 34.841-4.551 78.541-4.995 113.612-.033 2.643-.06 5.238-.079 7.776v.057a7.264 7.264 0 0 0 6.567 7.232c28.365 2.719 69.88 4.297 108.613 4.297 33.899 0 65.674-1.208 84.621-3.913 3.6-.513 6.273-3.574 6.273-7.199v-.057Z"/><path fill="#9BFFF9" d="M44.059 153.621a88.157 88.157 0 0 0-16.037-1.557c-.178.421-.335.983-.444 1.595-.1.567-.161 1.178-.16 1.765-.002.9.144 1.745.457 2.288 3.215.966 7.852 1.578 12.017 1.576 1.306 0 2.565-.059 3.72-.186.437-.737.666-1.715.735-2.668.016-.22.024-.436.023-.65.002-.867-.128-1.668-.311-2.163Z"/><path fill="#0FE2FF" d="M61.91 205.863c.479.938 1.062 1.828 1.76 2.587 8.62-.021 30.224-.031 51.829-.031 21.604 0 43.208.01 51.829.031 1.284-1.397 2.178-3.234 2.752-5.008.092-.284.175-.566.251-.846a589.06 589.06 0 0 1-108.42 3.267ZM81.173 196.034c-.308.857-.62 1.705-.937 2.543a34338.935 34338.935 0 0 0 70.526 0 154.712 154.712 0 0 1-1.242-3.4 660.858 660.858 0 0 1-68.347.857ZM97.12 175.398c-3.401-.071-6.79-.155-10.154-.25a117.439 117.439 0 0 1-1.374 6.324c4.28-.59 8.58-1.021 12.891-1.287a13.118 13.118 0 0 1-1.363-4.787ZM131.91 181.269c4.711.605 9.402 1.392 14.052 2.379a121.535 121.535 0 0 1-1.843-8.05c-3.381.048-6.808.081-10.269.1-.215 1.993-.893 3.875-1.94 5.571ZM71.56 24.347c46.302.111 92.612.223 138.922.328a7.31 7.31 0 0 0-4.448-1.911c-26.991-1.86-54.342-2.504-79.807-2.504-42.38 0-79.536 1.783-101.113 2.7a7.268 7.268 0 0 0-6.934 6.598c-.22 2.413-.435 4.878-.643 7.39 5.583-4.6 12.46-7.8 19.497-9.664 11.199-2.97 22.938-2.963 34.525-2.937ZM19.032 165.625c28.365 2.719 69.88 4.297 108.613 4.297 33.899 0 65.674-1.208 84.621-3.913 3.6-.513 6.273-3.574 6.273-7.199v-.057c-.006-.749-.011-1.504-.019-2.263-57.372 11.097-116.417 13.591-174.488 7.118-7.135-.798-14.388-1.76-20.903-4.77-4.084-1.888-7.888-4.716-10.585-8.278-.033 2.643-.06 5.238-.079 7.776v.057a7.264 7.264 0 0 0 6.567 7.232Z"/><path fill="#0FE2FF" d="M36.48 147.13c-3.278-.276-6.32-.569-9.087-.879.09-32.272 1.75-78.865 4.97-110.975 24.695-.956 105.017-4.7 166.387 0 3.22 32.11 4.881 78.703 4.971 110.975-5.076 1.007-12.556 1.805-21.662 2.41-15.321 1.06-35.551 1.545-56.715 1.546-32.153 0-66.44-1.124-88.864-3.077Zm168.999 1.308c-.093-33.503-1.786-81.878-5.07-115.216-62.592-4.878-144.517-.992-169.704 0-3.286 33.338-4.978 81.713-5.07 115.216 42.853 4.879 150.553 5.914 179.844 0ZM27.578 153.659c-.1.567-.161 1.178-.16 1.765-.002.9.144 1.745.457 2.288 3.215.966 7.852 1.578 12.017 1.576 1.306 0 2.565-.059 3.72-.186.437-.737.666-1.715.735-2.668-5.67 1.161-11.798.202-16.769-2.775Z"/><path fill="#F9AB42" d="M139.182 83.412c-.537.031-.542.82 0 .834 1.155.035 2.256.003 3.394-.187.357-.06.216-.539-.08-.579-1.112-.147-2.19-.136-3.314-.068ZM117.282 84.246c.542-.014.537-.803 0-.834-1.124-.068-2.199-.08-3.315.068-.292.04-.439.52-.079.58 1.138.19 2.239.22 3.394.186ZM127.789 94.753c-.034 1.155-.002 2.256.188 3.394.059.357.539.215.579-.08.147-1.115.136-2.193.068-3.314-.032-.537-.82-.542-.835 0ZM128.624 72.852c.068-1.124.079-2.2-.068-3.315-.04-.292-.52-.44-.579-.079-.19 1.138-.222 2.24-.188 3.394.015.542.803.537.835 0ZM124.219 94.097c-.289.508-.647 1.062-.737 1.649-.054.349.343.514.559.236.357-.472.51-1.113.675-1.672.088-.298-.346-.48-.497-.213ZM120.37 91.855c-.352.315-.678.656-.749 1.141-.04.287.241.451.471.272.17-.133.304-.275.431-.454.111-.156.219-.317.341-.468.272-.343-.153-.797-.494-.49ZM118.116 89.403c-.488.15-1.093.369-1.277.902-.068.2.111.372.295.386.519.037.965-.44 1.269-.797.178-.21.014-.585-.287-.49ZM116.841 86.517c-.213-.028-.414-.074-.633-.074a1.305 1.305 0 0 0-.636.156c-.278.136-.17.525.083.613.439.153.837.014 1.268-.096.361-.091.239-.56-.082-.6ZM132.368 94.097c-.15-.267-.587-.088-.496.213.164.559.315 1.2.675 1.671.213.279.613.114.559-.235-.091-.587-.448-1.14-.738-1.649ZM136.22 91.855c-.34-.306-.769.145-.493.491.122.15.229.312.34.468.125.18.261.321.432.454.229.18.51.015.468-.272-.068-.483-.395-.826-.747-1.14ZM138.472 89.403c-.301-.094-.465.281-.287.491.304.358.75.834 1.269.797.184-.014.363-.187.295-.386-.184-.533-.789-.752-1.277-.902ZM141.018 86.6a1.3 1.3 0 0 0-.635-.157c-.219 0-.42.046-.633.074-.318.04-.446.508-.083.599.432.11.829.25 1.269.096.253-.085.36-.477.082-.613ZM124.219 73.352c.151.266.585.088.497-.21-.165-.56-.318-1.2-.675-1.672-.213-.278-.613-.116-.559.236.09.584.448 1.138.737 1.646ZM120.37 75.597c.341.303.766-.148.494-.491-.122-.154-.23-.313-.341-.471a2.096 2.096 0 0 0-.431-.455c-.23-.178-.511-.01-.471.273.071.485.397.828.749 1.144ZM118.116 78.049c.301.093.465-.284.287-.494-.304-.358-.75-.835-1.269-.795-.184.011-.363.185-.295.386.184.53.789.75 1.277.903ZM115.572 80.852c.21.103.398.156.636.156.219-.002.42-.048.633-.073.318-.04.445-.508.082-.602-.431-.108-.829-.25-1.268-.096-.253.088-.361.48-.083.615ZM132.368 73.352c.289-.508.647-1.062.738-1.646.051-.35-.347-.517-.559-.236-.361.471-.511 1.113-.676 1.672-.088.298.343.48.497.21ZM136.221 75.597c.352-.316.678-.659.747-1.144.042-.284-.239-.451-.469-.273-.17.134-.306.276-.431.454-.111.16-.219.318-.341.472-.272.343.154.794.494.49ZM138.472 78.049c.488-.154 1.093-.372 1.277-.903.068-.201-.111-.374-.295-.386-.519-.04-.965.437-1.269.795-.178.21-.014.587.287.493ZM139.749 80.935c.213.025.415.07.633.073.239 0 .426-.053.636-.156.278-.136.17-.527-.082-.615-.44-.154-.837-.012-1.269.096-.36.094-.238.562.082.602ZM138.377 83.88c0-1.336-.289-2.61-.817-3.771-1.538-3.428-5.131-5.838-9.317-5.838-5.611 0-10.151 4.3-10.151 9.61 0 .717.091 1.435.241 2.105 1.022 4.297 5.069 7.5 9.91 7.5 5.597 0 10.134-4.299 10.134-9.606Z"/><path fill="#FFB800" d="M120.378 127.644c-14.854-.04-30.397-.539-40.796-1.385-.011 0-.02-.003-.03-.003a107.92 107.92 0 0 1-1.377-.116h-.003l-.65-.06c-.028-.002-.054-.005-.082-.005a6.272 6.272 0 0 0-.236-.023c-.022-.003-.042-.006-.065-.006l-.253-.025c-.02-.003-.04-.003-.056-.006a7.501 7.501 0 0 1-.281-.028c-.026 0-.049-.003-.074-.006h-.009l-.25-.025-.02-.003c-.099-.012-.198-.02-.294-.031h-.006c-.102-.012-.204-.02-.307-.032 0-.201.003-.405.003-.613v-.142c.003-.757.009-1.555.017-2.389.003-.278.006-.562.006-.849.003-.065.003-.13.003-.198.003-.173.003-.349.005-.525.006-.531.012-1.073.02-1.626.003-.182.006-.364.006-.548 0-.023.003-.046.003-.068l.008-.65c0-.08.003-.156.003-.236 0-.068.003-.136.003-.207v-.025c.074-5.043.202-10.895.38-16.926.39-13.145 1.025-27.145 1.907-35.466 11.738-.43 49.922-2.114 79.096 0 1.53 14.437 2.319 45.958 2.362 60.468a43.51 43.51 0 0 1-2.469.383c-5.131.665-13.151 1.07-22.332 1.255h-.006c-4.529.091-9.339.128-14.226.116ZM169 134.75c-.051-18.812-1.022-59.681-2.903-78.398-35.849-2.741-82.769-.559-97.194 0-1.649 16.404-2.597 49.82-2.84 70.495v.068c-.003.125-.003.247-.006.369l-.009.899-.003.088-.008.889c-.003.184-.003.369-.006.55 0 .102 0 .207-.003.31 0 .102 0 .204-.003.306-.002.304-.002.605-.005.903v.105l-.009.936v.071c-.002.312-.002.619-.005.922v.074c0 .156 0 .309-.003.463v.005c0 .321 0 .636-.003.945 24.543 2.739 86.225 3.318 103 0Z"/><path fill="#75CE9E" d="M146.302 105.083c-.67-1.558-1.331-3.145-2.381-4.476-1.053-1.328-2.566-2.392-4.257-2.5-3.153-.199-5.5 2.764-7.163 5.452a155.35 155.35 0 0 0-7.597 13.835 270.12 270.12 0 0 1-7.506-14.539 250.074 250.074 0 0 1-4.652-10.214c-.908-2.106-1.816-4.263-3.241-6.076-1.424-1.802-3.479-3.252-5.772-3.391-4.288-.278-7.478 3.757-9.734 7.401a211.88 211.88 0 0 0-16.012 31.569 261.049 261.049 0 0 0-1.512 3.837c.025.003.048.006.073.006.091.011.185.02.281.028.017.003.037.003.057.006l.253.025c.022 0 .042.003.065.006.08.006.156.014.236.023.028 0 .053.003.082.005l.65.06h.002c.449.04.906.08 1.377.116.011 0 .02.003.031.003 10.398.846 25.942 1.345 40.795 1.385 4.887.012 9.698-.025 14.227-.116h.006c9.18-.185 17.2-.59 22.331-1.255a201.25 201.25 0 0 1-10.639-21.19Z"/><path fill="#61C58E" d="M117.398 102.855c-.454 3.051-1.385 5.999-2.887 8.673-3.567 6.303-10.225 10.54-17.322 12.016-6.354 1.322-12.998.59-19.202-1.4a270.172 270.172 0 0 0-1.512 3.837c.025.003.048.006.073.006.091.011.185.02.281.028.017.003.037.003.057.006l.253.026a6.272 6.272 0 0 1 .3.028c.029 0 .054.003.083.006l.65.059h.002c.449.04.906.08 1.377.117l.031.002c10.398.846 25.942 1.346 40.795 1.385 1.388-3.47 2.898-6.89 4.527-10.25a270.12 270.12 0 0 1-7.506-14.539Z"/><path fill="#F89C2A" d="M125.643 87.85c-2.548.077-5.108-.592-7.313-1.864 1.022 4.297 5.069 7.5 9.91 7.5 5.597 0 10.134-4.299 10.134-9.606 0-1.336-.289-2.61-.817-3.771a12.182 12.182 0 0 1-1.578 2.548c-2.469 3.125-6.354 5.08-10.336 5.194Z"/><path fill="#FFA800" d="M169 134.75c-.003-1.453-.014-3.05-.028-4.745-11.5.559-23.067-.252-34.362-2.477h-.006c-4.529.091-9.339.128-14.226.116-14.854-.04-30.397-.539-40.796-1.385-.011 0-.02-.003-.03-.003a107.92 107.92 0 0 1-1.377-.116h-.003l-.65-.06c-.028-.002-.054-.005-.082-.005a6.272 6.272 0 0 0-.236-.023c-.022-.003-.042-.006-.065-.006l-.253-.025c-.02-.003-.04-.003-.056-.006a7.501 7.501 0 0 1-.281-.028c-.029-.003-.054-.006-.083-.006l-.25-.025-.02-.003c-.099-.012-.198-.02-.294-.031h-.006c-.102-.012-.204-.02-.307-.032 0-.201.003-.405.003-.613v-.142c.003-.757.009-1.555.017-2.389.003-.278.006-.562.006-.849.003-.065.003-.13.003-.198.003-.173.003-.349.005-.525.006-.531.012-1.073.02-1.626.003-.182.006-.364.006-.548 0-.023.003-.046.003-.068l.008-.65c0-.08.003-.156.003-.236 0-.068.003-.136.003-.207v-.025c.074-5.043.202-10.895.38-16.926a141 141 0 0 1-9.2-7.705c-.452 13.231-.724 26.697-.815 36.527 0 .102 0 .207-.003.31l-.008 1.209v.105l-.009.936v.071c-.002.312-.002.619-.005.922v.074c0 .156 0 .309-.003.463v.005c0 .321 0 .636-.003.945 24.543 2.739 86.225 3.318 103 0Z"/></svg>