<svg xmlns="http://www.w3.org/2000/svg" width="230" height="230" fill="none"><path fill="#372054" d="M189.398 21.302a.632.632 0 0 0-.384-.523c-8.208-3.395-18.843-5.834-30.777-7.431C146.304 11.752 133.072 11 119.688 11c-29.118.003-58.936 3.551-77.678 9.764a.625.625 0 0 0-.428.538C39.86 39.633 39 60.23 39 81.572c0 43.295 3.535 89.647 10.58 126.34.04.206.18.378.373.46 8.336 3.528 19.492 6.428 31.943 8.455 12.45 2.025 26.189 3.173 39.672 3.173 11.615 0 23.038-.851 33.289-2.732 10.249-1.882 19.324-4.789 26.248-8.935a.63.63 0 0 0 .295-.421c7.046-36.693 10.579-83.045 10.579-126.34 0-21.342-.858-41.939-2.581-60.27Z"/><path fill="#FFA4DB" d="M176.555 207.014c-9.552 3.947-19.673 6.18-29.912 7.415-30.701 3.707-63.143-.621-92.788-9.066-.442-.127-.253-.814.19-.69 5.777 1.622 11.627 2.987 17.504 4.195 16.505 3.391 33.352 5.54 50.21 5.841 6.714.12 13.466-.059 20.171-.665 11.765-1.063 23.385-3.445 34.399-7.846.134-.054.247-.037.333.022.238.161.257.644-.107.794Zm-45.983-10.606c0 3.654-1.717 6.953-4.45 9.316-2.736 2.366-6.493 3.815-10.631 3.815-4.139 0-7.896-1.449-10.631-3.815-2.734-2.363-4.451-5.662-4.45-9.316 0-.508.033-1.008.097-1.5.398-3.052 1.998-5.783 4.353-7.817 2.735-2.366 6.492-3.815 10.631-3.815 4.138 0 7.895 1.449 10.631 3.815 2.354 2.034 3.954 4.765 4.352 7.817.065.492.098.992.098 1.5ZM57.095 33.336a.628.628 0 0 1 .439-.538c14.793-4.572 38.303-7.18 61.266-7.182 10.555 0 20.989.553 30.402 1.727 9.413 1.175 17.802 2.969 24.286 5.47.22.084.375.287.398.523 1.36 13.483 2.037 28.28 2.037 43.504 0 30.885-2.788 63.524-8.345 90.515a.637.637 0 0 1-.309.421c-5.478 3.058-12.64 5.197-20.729 6.582-8.086 1.385-17.097 2.009-26.258 2.009-10.634 0-21.47-.843-31.29-2.333-9.82-1.49-18.62-3.624-25.205-6.222a.63.63 0 0 1-.384-.457c-5.557-26.991-8.345-59.63-8.345-90.515 0-15.224.677-30.02 2.037-43.504Zm45.862-13.638c6.941-1.32 14.836-1.962 21.815-.638.504.096.365.866-.116.868-7.286.039-14.312-.233-21.601.5-.418.041-.505-.653-.098-.73Zm26.156-1.759c.889-.976 2.83-.61 3.441.507.491.896.085 2.047-.766 2.562-.867.525-2.003.268-2.642-.492-.599-.712-.683-1.862-.033-2.577Zm59.07 3.857c-2.571-1.048-5.391-2.003-8.424-2.872-6.403-1.833-13.753-3.271-21.688-4.332-11.864-1.587-25.046-2.337-38.382-2.337-24.709-.003-49.963 2.579-68.348 7.141a121.672 121.672 0 0 0-8.546 2.431c-1.694 18.182-2.54 38.595-2.54 59.744 0 43.096 3.513 89.246 10.496 125.775 8.165 3.411 19.123 6.253 31.347 8.242 12.379 2.013 26.059 3.156 39.471 3.156 11.554 0 22.908-.848 33.061-2.711 10.033-1.84 18.887-4.676 25.591-8.635.19-1.001.38-2.01.566-3.025 3.441-18.747 5.99-39.872 7.646-61.731 1.527-20.163 2.292-40.95 2.292-61.071 0-21.16-.847-41.586-2.542-59.775Z"/><path fill="#fff" d="M174.363 59.484c-.316-8.894-.879-17.505-1.689-25.636-6.286-2.375-14.458-4.114-23.628-5.258-8.99-1.122-18.94-1.675-29.035-1.716l-1.212-.001c-18.688-.003-37.774 1.746-52.083 4.849-3.036.658-5.858 1.378-8.415 2.154-1.326 13.325-1.989 27.934-1.989 42.965 0 30.68 2.762 63.114 8.252 89.926 6.416 2.493 15.021 4.571 24.616 6.026 9.753 1.48 20.533 2.32 31.101 2.32 9.104 0 18.05-.624 26.047-1.993 7.869-1.346 14.819-3.419 20.076-6.301.12-.579.236-1.16.353-1.745 5.262-26.478 7.908-58.196 7.908-88.234 0-5.866-.1-11.669-.302-17.356ZM125.299 188.041c-2.497-2.16-5.965-3.51-9.81-3.509-3.844-.001-7.313 1.349-9.809 3.509-.508.44-.976.914-1.399 1.415-1.653 1.962-2.616 4.362-2.617 6.952.001 3.252 1.519 6.203 4.016 8.366 2.496 2.161 5.965 3.51 9.809 3.51 3.845 0 7.313-1.349 9.81-3.51a12.225 12.225 0 0 0 2.471-2.909c.989-1.638 1.544-3.492 1.544-5.457-.001-3.252-1.519-6.204-4.015-8.367Z"/><path fill="#FF50BA" d="M179.76 18.925c7.243 41.294 8.694 82.206 8.672 123.717 1.528-20.162 2.293-40.949 2.293-61.071 0-21.161-.846-41.585-2.541-59.775-2.572-1.047-5.392-2.003-8.424-2.87ZM176.552 207.014c-9.551 3.948-19.673 6.18-29.911 7.415-30.701 3.707-63.142-.621-92.788-9.066-.442-.127-.253-.814.19-.69 5.777 1.622 11.627 2.988 17.504 4.195 16.505 3.391 33.352 5.54 50.21 5.841 6.714.12 13.465-.059 20.171-.665-8.768.561-17.752.161-26.444-1.356h.005c8.689 0 15.735-6.095 15.735-13.612 0-1.454-.264-2.855-.752-4.168.065.492.098.992.098 1.5 0 3.654-1.717 6.953-4.45 9.316-2.736 2.366-6.493 3.815-10.631 3.815-4.139 0-7.896-1.449-10.631-3.815-2.734-2.363-4.451-5.662-4.45-9.316 0-.508.033-1.008.097-1.5a11.927 11.927 0 0 0-.751 4.168c0 5.223 3.4 9.759 8.391 12.042-14.576-3.72-27.865-10.868-37.297-22.232C44.722 157.411 41.89 114.42 43.115 75.234c.589-18.84 3.137-37.68 8.224-55.837a122.749 122.749 0 0 0-8.546 2.43c-1.694 18.182-2.54 38.595-2.54 59.743 0 43.097 3.513 89.247 10.496 125.776 8.165 3.411 19.123 6.253 31.347 8.242 12.379 2.013 26.058 3.156 39.47 3.156 11.555 0 22.909-.847 33.062-2.711 10.032-1.84 18.887-4.676 25.59-8.635.191-1.001.381-2.01.567-3.025a94.097 94.097 0 0 1-4.126 1.847c.239.162.258.644-.107.794Z"/><path fill="#FF50BA" d="M167.267 167.777c-5.478 3.057-12.641 5.196-20.729 6.581-8.087 1.385-17.097 2.01-26.258 2.01-10.635 0-21.47-.844-31.29-2.334-9.82-1.49-18.62-3.624-25.205-6.222a.63.63 0 0 1-.353-.354c.19.976.385 1.947.584 2.909 24.26 9.576 79.683 12.995 102.944 0 .198-.962.394-1.933.585-2.909a.636.636 0 0 1-.278.319Z"/><path fill="#F2AEFF" d="M105.68 204.774c2.496 2.161 5.965 3.51 9.809 3.51 3.845 0 7.313-1.349 9.81-3.51a12.225 12.225 0 0 0 2.471-2.909c-2.366 1.282-5.165 2.02-8.16 2.02-8.496 0-15.384-5.958-15.384-13.31 0-.377.019-.749.055-1.119-1.653 1.962-2.616 4.362-2.617 6.952.001 3.252 1.519 6.203 4.016 8.366ZM123.457 164.48c-17.725-4.22-34.413-13.763-45.728-28.223-7.635-9.763-12.193-21.642-14.918-33.735-5.252-23.356-3.803-48.152 3.905-70.8-3.036.658-5.858 1.378-8.415 2.155-1.326 13.323-1.989 27.933-1.989 42.964 0 30.68 2.762 63.114 8.252 89.926 6.417 2.493 15.021 4.571 24.616 6.026 9.753 1.48 20.533 2.32 31.101 2.32 9.105 0 18.05-.624 26.047-1.993 7.87-1.346 14.819-3.419 20.077-6.301.119-.579.236-1.16.352-1.745-14.169 3.107-29.866 2.602-43.3-.594ZM149.046 28.589c-8.989-1.122-18.939-1.674-29.034-1.715 11.283 2.36 22.391 5.908 32.246 11.85 8.726 5.264 16.25 12.425 22.106 20.76-.316-8.894-.879-17.506-1.688-25.638-6.287-2.374-14.46-4.114-23.63-5.257Z"/><path fill="#E967B6" d="m127.165 64.261 3.925-7.085a.78.78 0 0 0 .067-.6.78.78 0 0 0-.67-.567.789.789 0 0 0-.779.402l-3.965 7.159a26.725 26.725 0 0 0-21.473 0l-3.966-7.159a.79.79 0 0 0-1.077-.313.793.793 0 0 0-.312 1.078l3.924 7.085a22.675 22.675 0 0 0-9.118 8.198 22.7 22.7 0 0 0-3.522 11.749h49.614a22.696 22.696 0 0 0-12.648-19.947Zm-23.607 10.861a2.072 2.072 0 0 1-1.464-3.542 2.076 2.076 0 0 1 2.26-.447 2.077 2.077 0 0 1 1.277 1.92 2.073 2.073 0 0 1-2.073 2.07Zm22.9 0a2.072 2.072 0 0 1-1.464-3.542 2.072 2.072 0 0 1 3.537 1.472 2.077 2.077 0 0 1-2.073 2.07Zm-36.267 47.031a6.004 6.004 0 0 0 3.709 5.555c.73.302 1.511.456 2.3.454h3.978v12.273a5.567 5.567 0 0 0 5.561 5.565 5.56 5.56 0 0 0 5.562-5.565v-12.273h7.415v12.273a5.566 5.566 0 0 0 5.559 5.563 5.563 5.563 0 0 0 5.56-5.563v-12.273h3.981a6.01 6.01 0 0 0 4.245-1.757 6 6 0 0 0 1.756-4.248V86.171H90.191v35.982Zm-7.632-36.94A5.573 5.573 0 0 0 77 90.782v23.191a5.569 5.569 0 0 0 3.433 5.14 5.566 5.566 0 0 0 4.255 0 5.576 5.576 0 0 0 3.009-3.011c.279-.675.423-1.399.423-2.129v-23.19a5.566 5.566 0 0 0-5.56-5.563m64.882-.001a5.568 5.568 0 0 0-5.56 5.567v23.191a5.576 5.576 0 0 0 1.629 3.934 5.576 5.576 0 0 0 1.803 1.206 5.571 5.571 0 0 0 4.255 0 5.58 5.58 0 0 0 1.804-1.206 5.581 5.581 0 0 0 1.628-3.934V90.781a5.574 5.574 0 0 0-5.559-5.563Z"/></svg>